<?xml version="1.0" encoding="iso-8859-1"?>
<!-- Generator: Adobe Illustrator 19.0.0, SVG Export Plug-In . SVG Version: 6.00 Build 0)  -->
<svg version="1.1" id="Capa_1" xmlns="http://www.w3.org/2000/svg" xmlns:xlink="http://www.w3.org/1999/xlink" x="0px" y="0px"
	 viewBox="0 0 512 512" style="enable-background:new 0 0 512 512;" xml:space="preserve">
<path style="fill:#5F6E9B;" d="M374.532,227.987v168.31c0,10.952,8.879,19.831,19.831,19.831c10.952,0,19.831-8.878,19.831-19.831
	v-168.31H374.532z"/>
<path style="fill:#414B82;" d="M422.403,227.987v168.31c0,10.952,8.879,19.831,19.831,19.831c10.952,0,19.831-8.878,19.831-19.831
	v-168.31H422.403z"/>
<g>
	<circle style="fill:#FFB69E;" cx="418.117" cy="34.253" r="34.253"/>
	<path style="fill:#FFB69E;" d="M502.322,118.329c-0.101-20.347-16.578-38.912-41.21-38.912c-15.364,0-87.012,0-87.012,0l0,0
		c-22.844,0-40.041,18.216-40.145,38.912v22.618l0,0v98.79c-0.045,9.127,7.316,16.562,16.443,16.608h0.085
		c9.088,0,16.478-7.344,16.523-16.443c0-12.988,0-106.34,0-121.407c0.017-3.323,3.343-6.026,6.666-6.026h0.86v125.319h87.533
		l-0.002-125.322c0,0,1.968-0.263,4.106,1.033c2.044,1.239,3.092,3.212,3.101,4.996c0,15.034,0,108.162,0,121.408
		c0.045,9.098,7.436,16.442,16.523,16.442h0.085c9.127-0.046,16.488-7.481,16.443-16.608L502.322,118.329z"/>
</g>
<path style="fill:#64AFFF;" d="M461.111,79.416h-25.016c0,0.003,0.001,0.006,0.001,0.009c0.443,9.876-8.721,18.287-18.287,18.287
	c-10.252,0-17.844-8.38-18.287-18.287c0-0.003,0-0.006,0-0.009c-14.36,0-25.422,0-25.422,0c-22.844,0-40.041,18.216-40.145,38.912
	v22.618l0,0v9.81h33.051v-32.261c0.017-3.323,3.343-6.026,6.666-6.026h0.86v125.319h87.533l-0.002-125.322
	c0,0,1.968-0.263,4.106,1.033c2.044,1.239,3.092,3.212,3.101,4.996v32.261h33.051v-32.428
	C502.22,97.981,485.743,79.416,461.111,79.416z"/>
<path style="fill:#5F6E9B;" d="M224.942,253.66v187.264c0,12.185,9.878,22.063,22.064,22.063c12.185,0,22.064-9.878,22.064-22.063
	V253.66H224.942z"/>
<path style="fill:#414B82;" d="M278.202,253.66v187.264c0,12.185,9.878,22.063,22.064,22.063c12.185,0,22.064-9.878,22.064-22.063
	V253.66H278.202z"/>
<g>
	<circle style="fill:#80391B;" cx="273.432" cy="38.106" r="38.106"/>
	<path style="fill:#80391B;" d="M367.121,131.652c-0.113-22.639-18.445-43.294-45.852-43.294c-17.094,0-96.811,0-96.811,0l0,0
		c-25.417,0-44.55,20.267-44.666,43.294v25.164l0,0v109.914c-0.051,10.154,8.14,18.428,18.294,18.478h0.094
		c10.111,0,18.334-8.171,18.384-18.294c0-14.45,0-118.315,0-135.079c0.018-3.697,3.72-6.705,7.417-6.705h0.957v139.431h97.39
		l-0.002-139.434c0,0,2.19-0.292,4.568,1.15c2.274,1.379,3.44,3.574,3.45,5.558c0,16.727,0,120.342,0,135.08
		c0.051,10.122,8.274,18.293,18.384,18.293h0.094c10.154-0.051,18.345-8.324,18.294-18.478L367.121,131.652z"/>
</g>
<path style="fill:#FF4619;" d="M321.27,88.359h-27.833c0,0.003,0.001,0.007,0.001,0.01c0.492,10.988-9.704,20.347-20.347,20.347
	c-11.407,0-19.853-9.323-20.347-20.347c0-0.003,0-0.007,0-0.01c-15.978,0-28.285,0-28.285,0c-25.417,0-44.55,20.267-44.666,43.294
	v25.164l0,0v10.915h36.773v-35.894c0.018-3.697,3.72-6.705,7.417-6.705h0.957v139.431h97.39l-0.002-139.434
	c0,0,2.19-0.293,4.568,1.15c2.274,1.379,3.44,3.574,3.45,5.558v35.894h36.773v-36.079C367.008,109.015,348.676,88.359,321.27,88.359
	z"/>
<path style="fill:#FFB69E;" d="M216.595,145.144c-0.133-26.401-22.056-47.88-48.871-47.88H58.556
	c-26.815,0-48.739,21.479-48.871,47.88c0,0.034,0,0.068,0,0.102v149.391c0,11.231,9.104,20.335,20.335,20.335
	s20.335-9.104,20.335-20.335V145.313c0.043-3.867,3.941-7.38,8.202-7.38h0.732v154.621h107.709V137.933h0.727
	c4.261,0,8.16,3.514,8.202,7.38v149.324c0,11.231,9.104,20.335,20.335,20.335c11.231,0,20.335-9.104,20.335-20.335V145.245
	C216.596,145.211,216.596,145.177,216.595,145.144z"/>
<path style="fill:#343E6B;" d="M142.596,512c-13.476,0-24.402-10.925-24.402-24.402V292.553c0-13.476,10.925-24.402,24.402-24.402
	s24.402,10.925,24.402,24.402v195.045C166.996,501.075,156.072,512,142.596,512z"/>
<path style="fill:#414B82;" d="M83.689,512c-13.476,0-24.402-10.925-24.402-24.402V292.553c0-13.476,10.925-24.402,24.402-24.402
	s24.402,10.925,24.402,24.402v195.045C108.091,501.075,97.166,512,83.689,512z"/>
<path style="fill:#252D5C;" d="M216.595,145.144c-0.133-26.401-22.056-47.88-48.871-47.88h-34.167
	c-0.136,10.612-10.089,19.465-20.468,19.465c-11.121,0-19.421-8.823-20.363-19.465h-34.17c-26.815,0-48.739,21.479-48.871,47.88
	c0,0.034,0,0.068,0,0.102v149.391c0,11.231,9.104,20.335,20.335,20.335s20.335-9.104,20.335-20.335V145.313
	c0.043-3.867,3.941-7.38,8.202-7.38h0.732v154.621h107.709V137.933h0.727c4.261,0,8.16,3.514,8.202,7.38v149.324
	c0,11.231,9.104,20.335,20.335,20.335c11.231,0,20.335-9.104,20.335-20.335V145.245
	C216.596,145.211,216.596,145.177,216.595,145.144z"/>
<path style="fill:#1B224A;" d="M216.595,145.144c-0.133-26.401-22.056-47.88-48.871-47.88h-34.167
	c-0.135,10.598-10.061,19.439-20.423,19.464v175.826h53.863V137.933h0.727c4.261,0,8.16,3.514,8.202,7.38v149.324
	c0,11.231,9.104,20.335,20.335,20.335s20.335-9.104,20.335-20.335V145.245C216.596,145.211,216.596,145.177,216.595,145.144z"/>
<g>
	<path style="fill:#FFB69E;" d="M9.678,294.113v0.523c0,11.231,9.104,20.335,20.335,20.335s20.335-9.104,20.335-20.335v-0.523H9.678
		z"/>
	<path style="fill:#FFB69E;" d="M175.92,294.113v0.523c0,11.231,9.104,20.335,20.335,20.335c11.231,0,20.335-9.104,20.335-20.335
		v-0.523H175.92z"/>
	<circle style="fill:#FFB69E;" cx="113.132" cy="42.144" r="42.144"/>
</g>
<g>
</g>
<g>
</g>
<g>
</g>
<g>
</g>
<g>
</g>
<g>
</g>
<g>
</g>
<g>
</g>
<g>
</g>
<g>
</g>
<g>
</g>
<g>
</g>
<g>
</g>
<g>
</g>
<g>
</g>
</svg>
