<?xml version="1.0" encoding="iso-8859-1"?>
<!-- Generator: Adobe Illustrator 19.0.0, SVG Export Plug-In . SVG Version: 6.00 Build 0)  -->
<svg version="1.1" id="Capa_1" xmlns="http://www.w3.org/2000/svg" xmlns:xlink="http://www.w3.org/1999/xlink" x="0px" y="0px"
	 viewBox="0 0 512 512" style="enable-background:new 0 0 512 512;" xml:space="preserve">
<g>
	<g>
		<g>
			<polygon points="182.857,195.568 239.515,157.799 182.857,120.03 			"/>
			<path d="M18.286,276.656V38.942c0.01-10.095,8.191-18.276,18.286-18.286h329.143c10.095,0.01,18.276,8.191,18.286,18.286v219.429
				h18.286V11.513c-0.007-5.047-4.096-9.136-9.143-9.143h-384C4.096,2.377,0.007,6.467,0,11.513v420.571
				c0.007,5.047,4.096,9.136,9.143,9.143h192v-82.286h-54.857v9.143c-0.01,10.095-8.191,18.276-18.286,18.286h-18.286
				c-10.095-0.01-18.276-8.191-18.286-18.286v-9.143H36.571c-5.049,0-9.143-4.093-9.143-9.143s4.093-9.143,9.143-9.143h54.857
				v-9.143c0.01-10.095,8.191-18.276,18.286-18.286H128c10.095,0.01,18.276,8.191,18.286,18.286v9.143h54.857v-45.714H36.571
				C26.477,294.932,18.296,286.751,18.286,276.656z M36.571,404.656h109.714c5.049,0,9.143,4.093,9.143,9.143
				s-4.093,9.143-9.143,9.143H36.571c-5.049,0-9.143-4.093-9.143-9.143S31.522,404.656,36.571,404.656z"/>
			<polygon points="128,331.513 109.714,331.513 109.714,368.085 128.009,368.085 128.009,349.836 128,349.799 128.009,349.763 			
				"/>
			<path d="M365.714,258.371V38.942H36.571v237.714h166.256c3.849-10.927,14.158-18.25,25.744-18.286H365.714z M193,210.786
				c-5.611,3.742-12.826,4.091-18.772,0.909c-5.946-3.182-9.658-9.379-9.657-16.123v-75.545c0-6.745,3.712-12.942,9.659-16.124
				s13.163-2.832,18.774,0.91l56.656,37.772c5.087,3.391,8.143,9.1,8.143,15.214s-3.056,11.823-8.143,15.214L193,210.786z"/>
			<path d="M502.857,276.656H228.571c-5.047,0.007-9.136,4.096-9.143,9.143v173.714c0.007,5.047,4.096,9.136,9.143,9.143h76.994
				l-10.73-12.263c-3.326-3.799-2.942-9.576,0.857-12.902c3.799-3.326,9.576-2.942,12.902,0.857l23.588,26.958l0.101,0.116
				l33.432,38.208l57.121-65.281c2.152-2.458,5.451-3.581,8.655-2.947c3.204,0.634,5.827,2.93,6.879,6.022
				c1.053,3.092,0.376,6.511-1.776,8.969l-10.73,12.263h76.994c5.047-0.007,9.136-4.096,9.143-9.143V285.799
				C511.993,280.752,507.904,276.663,502.857,276.656z M374.857,294.942h27.429c5.049,0,9.143,4.093,9.143,9.143
				s-4.093,9.143-9.143,9.143h-27.429c-5.049,0-9.143-4.093-9.143-9.143S369.808,294.942,374.857,294.942z M301.714,294.942h36.571
				c5.049,0,9.143,4.093,9.143,9.143s-4.093,9.143-9.143,9.143h-36.571c-5.049,0-9.143-4.093-9.143-9.143
				S296.665,294.942,301.714,294.942z M246.857,294.942h18.286c5.049,0,9.143,4.093,9.143,9.143s-4.093,9.143-9.143,9.143h-18.286
				c-5.049,0-9.143-4.093-9.143-9.143S241.808,294.942,246.857,294.942z M246.857,331.513h146.286c5.049,0,9.143,4.093,9.143,9.143
				c0,5.049-4.093,9.143-9.143,9.143H246.857c-5.049,0-9.143-4.093-9.143-9.143C237.714,335.607,241.808,331.513,246.857,331.513z
				 M246.857,368.085h18.286c5.049,0,9.143,4.093,9.143,9.143c0,5.049-4.093,9.143-9.143,9.143h-18.286
				c-5.049,0-9.143-4.093-9.143-9.143C237.714,372.178,241.808,368.085,246.857,368.085z M274.286,422.942h-27.429
				c-5.049,0-9.143-4.093-9.143-9.143s4.093-9.143,9.143-9.143h27.429c5.049,0,9.143,4.093,9.143,9.143
				S279.335,422.942,274.286,422.942z M338.286,422.942h-27.429c-5.049,0-9.143-4.093-9.143-9.143s4.093-9.143,9.143-9.143h27.429
				c5.049,0,9.143,4.093,9.143,9.143S343.335,422.942,338.286,422.942z M393.143,422.942h-18.286c-5.049,0-9.143-4.093-9.143-9.143
				s4.093-9.143,9.143-9.143h18.286c5.049,0,9.143,4.093,9.143,9.143S398.192,422.942,393.143,422.942z M484.571,386.371H301.714
				c-5.049,0-9.143-4.093-9.143-9.143c0-5.049,4.093-9.143,9.143-9.143h182.857c5.049,0,9.143,4.093,9.143,9.143
				C493.714,382.277,489.621,386.371,484.571,386.371z M484.571,349.799h-54.857c-5.049,0-9.143-4.093-9.143-9.143
				c0-5.049,4.093-9.143,9.143-9.143h54.857c5.049,0,9.143,4.093,9.143,9.143C493.714,345.706,489.621,349.799,484.571,349.799z
				 M484.571,313.228h-45.714c-5.049,0-9.143-4.093-9.143-9.143s4.093-9.143,9.143-9.143h45.714c5.049,0,9.143,4.093,9.143,9.143
				S489.621,313.228,484.571,313.228z"/>
		</g>
	</g>
</g>
<g>
</g>
<g>
</g>
<g>
</g>
<g>
</g>
<g>
</g>
<g>
</g>
<g>
</g>
<g>
</g>
<g>
</g>
<g>
</g>
<g>
</g>
<g>
</g>
<g>
</g>
<g>
</g>
<g>
</g>
</svg>
