<svg viewBox="0 0 512 512" xmlns="http://www.w3.org/2000/svg"><path d="m61 0h30v31h-30zm0 0"/><path d="m121 0h30v31h-30zm0 0"/><path d="m181 0h30v31h-30zm0 0"/><path d="m241 0h30v31h-30zm0 0"/><path d="m301 0h30v31h-30zm0 0"/><path d="m361 0h30v31h-30zm0 0"/><path d="m421 0h30v31h-30zm0 0"/><path d="m451 31v60h-30v-60h-30v60h-30v-60h-30v60h-30v-60h-30v60h-30v-60h-30v60h-30v-60h-30v60h-30v-60h-30v60h-30v-60h-61v90h512v-90zm0 0"/><path d="m241 391h30v-60h60v-30h-60v-60h-30v60h-60v30h60zm0 0"/><path d="m0 512h512v-361h-512zm151-241h60v-60h90v60h60v90h-60v60h-90v-60h-60zm0 0"/></svg>