<?xml version="1.0" encoding="iso-8859-1"?>
<!-- Generator: Adobe Illustrator 18.0.0, SVG Export Plug-In . SVG Version: 6.00 Build 0)  -->
<!DOCTYPE svg PUBLIC "-//W3C//DTD SVG 1.1//EN" "http://www.w3.org/Graphics/SVG/1.1/DTD/svg11.dtd">
<svg version="1.1" id="Capa_1" xmlns="http://www.w3.org/2000/svg" xmlns:xlink="http://www.w3.org/1999/xlink" x="0px" y="0px"
	 viewBox="0 0 294.023 294.023" style="enable-background:new 0 0 294.023 294.023;" xml:space="preserve">
<g>
	<path style="fill:#FF7F66;" d="M156.333,3.556c-1.941-0.505-4.039-0.218-5.799,0.85c-0.54-1.87-1.782-3.44-3.427-4.405
		c-1.644,0.965-2.886,2.535-3.426,4.404c-1.759-1.066-3.857-1.354-5.798-0.849c-0.649,2.498-0.004,5.263,1.953,7.22
		c1.895,1.896,4.545,2.549,6.979,2c0.099,0.064,0.19,0.138,0.292,0.198c0.102-0.06,0.194-0.134,0.293-0.198
		c2.434,0.55,5.084-0.104,6.98-1.999C156.337,8.819,156.983,6.054,156.333,3.556z"/>
	<path style="fill:#FCA195;" d="M196.622,21.331c-0.972-0.252-2.02-0.108-2.899,0.425c-0.27-0.935-0.892-1.72-1.714-2.203
		c-0.822,0.483-1.443,1.268-1.713,2.203c-0.88-0.533-1.929-0.677-2.9-0.425c-0.324,1.249-0.002,2.632,0.978,3.61
		c0.946,0.947,2.271,1.274,3.489,1c0.049,0.032,0.095,0.068,0.146,0.099c0.051-0.03,0.097-0.067,0.146-0.099
		c1.217,0.274,2.542-0.053,3.489-1C196.623,23.963,196.946,22.58,196.622,21.331z"/>
	<path style="fill:#FCA195;" d="M106.582,88.914c-0.971-0.252-2.02-0.108-2.899,0.425c-0.27-0.935-0.892-1.72-1.713-2.203
		c-0.822,0.483-1.443,1.268-1.714,2.203c-0.88-0.533-1.928-0.677-2.898-0.425c-0.325,1.249-0.002,2.632,0.977,3.61
		c0.947,0.947,2.272,1.274,3.489,1c0.049,0.032,0.095,0.068,0.147,0.099c0.05-0.03,0.097-0.067,0.146-0.099
		c1.216,0.274,2.541-0.053,3.488-1C106.583,91.546,106.906,90.163,106.582,88.914z"/>
	<path style="fill:#00A388;" d="M192.144,35.944c-8.402,0-15.214,6.812-15.214,15.214v34.998h-12.478V43.363
		c0-7.164-5.808-12.971-12.972-12.971h-8.579c-7.164,0-12.971,5.807-12.971,12.971v108.734h-12.839V117.1
		c0-8.402-6.81-15.214-15.213-15.214c-8.402,0-15.214,6.812-15.214,15.214v50.211c0,8.402,6.812,15.213,15.214,15.213h28.052v74.271
		c0,7.164,5.807,12.971,12.971,12.971h8.579c7.164,0,12.972-5.807,12.972-12.971V116.583h27.691c8.402,0,15.214-6.812,15.214-15.214
		V51.158C207.358,42.755,200.546,35.944,192.144,35.944z"/>
	<g>
		<path style="fill:#BEEB9F;" d="M134.034,266.243c0.37,0.348,0.761,0.672,1.17,0.975V32.94c-0.409,0.303-0.8,0.627-1.17,0.975
			v121.23h-21.209v-48.597c-0.372-0.386-0.76-0.755-1.17-1.1v50.282c0,0.323,0.262,0.585,0.585,0.585h21.794v4.211h-26.238V103.08
			c-0.381-0.161-0.774-0.298-1.17-0.429v58.461c0,0.323,0.262,0.585,0.585,0.585h26.823v4.558h-31.267v-64.324
			c-0.296-0.017-0.589-0.045-0.888-0.045c-0.096,0-0.188,0.013-0.283,0.015v64.939c0,0.323,0.262,0.585,0.585,0.585h31.853v3.689
			H97.738v-68.643c-0.397,0.112-0.786,0.243-1.171,0.387V171.7c0,0.323,0.262,0.585,0.586,0.585h36.881v4.642H92.708v-71.945
			c-0.407,0.308-0.797,0.635-1.17,0.981v71.549c0,0.323,0.262,0.585,0.585,0.585h41.91V266.243z"/>
		<path style="fill:#BEEB9F;" d="M201.315,39.04v71.946h-40.966v-4.643h36.521c0.324,0,0.586-0.262,0.586-0.585V36.916
			c-0.385-0.143-0.773-0.274-1.171-0.387v68.643h-35.937v-3.69h31.493c0.323,0,0.585-0.262,0.585-0.585v-64.94
			c-0.095-0.002-0.188-0.015-0.283-0.015c-0.3,0-0.592,0.028-0.888,0.045v64.324h-30.907v-4.558h26.464
			c0.323,0,0.585-0.262,0.585-0.585V36.71c-0.396,0.129-0.789,0.267-1.17,0.428v57.447h-25.879v-4.211h21.435
			c0.323,0,0.585-0.262,0.585-0.585V39.507c-0.41,0.345-0.798,0.714-1.17,1.1v48.597h-20.85V33.915
			c-0.37-0.348-0.761-0.672-1.17-0.975v234.278c0.409-0.303,0.8-0.627,1.17-0.975V112.155H201.9c0.323,0,0.585-0.262,0.585-0.585
			V40.021C202.112,39.674,201.722,39.348,201.315,39.04z"/>
		<path style="fill:#BEEB9F;" d="M140.233,30.67c-0.397,0.083-0.787,0.182-1.17,0.3v238.218c0.383,0.118,0.773,0.218,1.17,0.301
			V30.67z"/>
		<rect x="144.091" y="30.392" style="fill:#BEEB9F;" width="1.171" height="239.374"/>
		<path style="fill:#BEEB9F;" d="M155.32,30.97c-0.383-0.118-0.773-0.217-1.17-0.3v238.819c0.396-0.083,0.787-0.183,1.17-0.301
			V30.97z"/>
		<rect x="149.121" y="30.392" style="fill:#BEEB9F;" width="1.171" height="239.374"/>
	</g>
	<ellipse style="fill:#9DC02E;" cx="147.012" cy="21.563" rx="8.209" ry="9.107"/>
	<ellipse style="fill:#9DC02E;" cx="192.009" cy="30.607" rx="4.798" ry="5.323"/>
	<ellipse style="fill:#9DC02E;" cx="101.969" cy="97.191" rx="4.798" ry="5.323"/>
	<polygon style="fill:#FFD34E;" points="112.229,232.432 125.971,294.023 167.694,294.023 181.436,232.432 	"/>
	<rect x="106.268" y="227.134" style="fill:#DB9E36;" width="81.129" height="12.252"/>
	<polygon style="fill:#BD4932;" points="171.009,279.165 177.12,251.777 116.545,251.777 122.656,279.165 	"/>
</g>
<g>
</g>
<g>
</g>
<g>
</g>
<g>
</g>
<g>
</g>
<g>
</g>
<g>
</g>
<g>
</g>
<g>
</g>
<g>
</g>
<g>
</g>
<g>
</g>
<g>
</g>
<g>
</g>
<g>
</g>
</svg>
