<svg height="512pt" viewBox="-64 0 512 512" width="512pt" xmlns="http://www.w3.org/2000/svg"><path d="m344.367188 48.199219h-91.230469c-6.75-27.632813-31.722657-48.199219-61.402344-48.199219-29.683594 0-54.652344 20.566406-61.402344 48.199219h-91.230469c-21.5625 0-39.101562 17.539062-39.101562 39.101562v385.597657c0 21.5625 17.539062 39.101562 39.101562 39.101562h305.265626c21.558593 0 39.101562-17.539062 39.101562-39.101562v-385.597657c0-21.5625-17.542969-39.101562-39.101562-39.101562zm-217.964844 30h17.132812c8.28125 0 15-6.714844 15-15 0-18.304688 14.894532-33.199219 33.199219-33.199219s33.199219 14.894531 33.199219 33.199219c0 8.285156 6.714844 15 15 15h17.132812v18.199219h-130.664062zm178.863281 48.199219v307.402343h-227.066406v-307.402343zm48.203125 346.5c0 5.019531-4.085938 9.101562-9.101562 9.101562h-305.265626c-5.019531 0-9.101562-4.082031-9.101562-9.101562v-385.597657c0-5.019531 4.085938-9.101562 9.101562-9.101562h57.300782v18.199219h-33.203125c-8.28125 0-15 6.71875-15 15v337.402343c0 8.285157 6.71875 15 15 15h257.066406c8.285156 0 15-6.714843 15-15v-337.402343c0-8.28125-6.714844-15-15-15h-33.199219v-18.199219h57.300782c5.019531 0 9.101562 4.082031 9.101562 9.101562zm0 0"/><path d="m167.632812 206.734375h9.101563v9.097656c0 8.285157 6.714844 15 15 15s15-6.714843 15-15v-9.097656h9.101563c8.28125 0 15-6.71875 15-15 0-8.285156-6.71875-15-15-15h-9.101563v-9.101563c0-8.285156-6.714844-15-15-15s-15 6.714844-15 15v9.101563h-9.101563c-8.28125 0-15 6.714844-15 15 0 8.28125 6.71875 15 15 15zm0 0"/><path d="m127.46875 287.066406h128.53125c8.285156 0 15-6.714844 15-15s-6.714844-15-15-15h-128.53125c-8.285156 0-15 6.714844-15 15s6.714844 15 15 15zm0 0"/><path d="m127.46875 335.265625h128.53125c8.285156 0 15-6.714844 15-15 0-8.28125-6.714844-15-15-15h-128.53125c-8.285156 0-15 6.71875-15 15 0 8.285156 6.714844 15 15 15zm0 0"/><path d="m127.46875 383.46875h64.265625c8.285156 0 15-6.71875 15-15 0-8.285156-6.714844-15-15-15h-64.265625c-8.285156 0-15 6.714844-15 15 0 8.28125 6.714844 15 15 15zm0 0"/></svg>