<?xml version="1.0" encoding="iso-8859-1"?>
<!-- Generator: Adobe Illustrator 19.0.0, SVG Export Plug-In . SVG Version: 6.00 Build 0)  -->
<svg version="1.1" id="Layer_1" xmlns="http://www.w3.org/2000/svg" xmlns:xlink="http://www.w3.org/1999/xlink" x="0px" y="0px"
	 viewBox="0 0 491.52 491.52" style="enable-background:new 0 0 491.52 491.52;" xml:space="preserve">
<rect y="127.616" style="fill:#E1E6E9;" width="491.52" height="17.623"/>
<path style="fill:#EBF0F3;" d="M0,474.723C0,484,7.521,491.52,16.796,491.52h457.929c9.277,0,16.796-7.52,16.796-16.797V145.236H0
	V474.723z"/>
<path style="fill:#E56353;" d="M491.52,62.002c0-9.275-7.519-16.796-16.796-16.796H16.796C7.521,45.206,0,52.727,0,62.002v65.612
	h491.52V62.002z"/>
<g>
	<path style="fill:#64798A;" d="M80.22,0c-6.168,0-11.169,5-11.169,11.168v68.076c0,6.168,5.001,11.169,11.169,11.169
		c6.169,0,11.169-5.001,11.169-11.169V11.168C91.39,5,86.39,0,80.22,0z"/>
	<path style="fill:#64798A;" d="M125.662,0c-6.167,0-11.168,5-11.168,11.168v68.076c0,6.168,5.001,11.169,11.168,11.169
		c6.17,0,11.17-5.001,11.17-11.169V11.168C136.832,5,131.832,0,125.662,0z"/>
	<path style="fill:#64798A;" d="M365.857,0c-6.168,0-11.169,5-11.169,11.168v68.076c0,6.168,5.001,11.169,11.169,11.169
		c6.169,0,11.169-5.001,11.169-11.169V11.168C377.026,5,372.026,0,365.857,0z"/>
	<path style="fill:#64798A;" d="M411.298,0c-6.167,0-11.168,5-11.168,11.168v68.076c0,6.168,5.001,11.169,11.168,11.169
		c6.17,0,11.17-5.001,11.17-11.169V11.168C422.469,5,417.468,0,411.298,0z"/>
</g>
<path style="fill:#3EA69B;" d="M245.762,214.585v207.586c57.323,0,103.791-46.469,103.791-103.792
	C349.553,261.054,303.085,214.585,245.762,214.585z"/>
<path style="fill:#44C4A1;" d="M141.967,318.379c0,57.323,46.469,103.792,103.795,103.792V214.585
	C188.436,214.585,141.967,261.054,141.967,318.379z"/>
<path style="fill:#31978C;" d="M222.162,369.033c-0.462,0-0.925-0.026-1.387-0.07c-3.823-0.402-7.279-2.417-9.513-5.534
	l-26.915-37.597c-4.311-6.022-2.924-14.392,3.098-18.703c6.022-4.293,14.391-2.932,18.702,3.098l18.109,25.301l62.967-57.662
	c5.437-4.983,13.938-4.634,18.939,0.838c5,5.454,4.625,13.937-0.838,18.938l-74.112,67.872
	C228.734,367.785,225.496,369.033,222.162,369.033z"/>
<path style="fill:#FFFFFF;" d="M222.162,362.402c-0.462,0-0.925-0.026-1.387-0.07c-3.823-0.401-7.279-2.417-9.513-5.533
	l-26.915-37.598c-4.311-6.022-2.924-14.391,3.098-18.702c6.022-4.294,14.391-2.933,18.702,3.098l18.109,25.3l62.967-57.661
	c5.437-4.984,13.938-4.635,18.939,0.837c5,5.455,4.625,13.938-0.838,18.938l-74.112,67.873
	C228.734,361.155,225.496,362.402,222.162,362.402z"/>
<g>
</g>
<g>
</g>
<g>
</g>
<g>
</g>
<g>
</g>
<g>
</g>
<g>
</g>
<g>
</g>
<g>
</g>
<g>
</g>
<g>
</g>
<g>
</g>
<g>
</g>
<g>
</g>
<g>
</g>
</svg>
