<svg height="480pt" viewBox="0 0 480 480" width="480pt" xmlns="http://www.w3.org/2000/svg"><path d="m399.519531 148.398438 38.480469-38.476563-67.921875-67.921875-38.476563 38.480469c-13.664062-7.945313-28.328124-14.023438-43.601562-18.082031v-54.398438h-96v54.398438c-15.273438 4.058593-29.9375 10.136718-43.601562 18.082031l-38.476563-38.480469-67.921875 67.921875 38.480469 38.476563c-7.945313 13.664062-14.023438 28.328124-18.082031 43.601562h-54.398438v96h54.398438c4.058593 15.273438 10.136718 29.9375 18.082031 43.601562l-38.480469 38.476563 67.921875 67.921875 38.476563-38.480469c13.664062 7.945313 28.328124 14.023438 43.601562 18.082031v54.398438h96v-54.398438c15.273438-4.058593 29.9375-10.136718 43.601562-18.082031l38.476563 38.480469 67.921875-67.921875-38.480469-38.476563c7.945313-13.664062 14.023438-28.328124 18.082031-43.601562h54.398438v-96h-54.398438c-4.058593-15.273438-10.136718-29.9375-18.082031-43.601562zm-159.519531 211.601562c-66.273438 0-120-53.726562-120-120s53.726562-120 120-120 120 53.726562 120 120c-.074219 66.242188-53.757812 119.925781-120 120zm0 0" fill="#2488ff"/><path d="m240 120c-66.273438 0-120 53.726562-120 120s53.726562 120 120 120 120-53.726562 120-120c-.074219-66.242188-53.757812-119.925781-120-120zm0 200c-44.183594 0-80-35.816406-80-80s35.816406-80 80-80 80 35.816406 80 80c-.046875 44.164062-35.835938 79.953125-80 80zm0 0" fill="#c6c5ca"/><path d="m320 240c0 44.183594-35.816406 80-80 80s-80-35.816406-80-80 35.816406-80 80-80 80 35.816406 80 80zm0 0" fill="#57565c"/><g fill="#231f20"><path d="m472 184h-48.34375c-3.582031-11.847656-8.339844-23.3125-14.199219-34.214844l34.199219-34.210937c3.121094-3.121094 3.121094-8.1875 0-11.308594l-67.921875-67.921875c-3.121094-3.121094-8.1875-3.121094-11.308594 0l-34.210937 34.199219c-10.902344-5.863281-22.363282-10.621094-34.214844-14.199219v-48.34375c0-4.417969-3.582031-8-8-8h-96c-4.417969 0-8 3.582031-8 8v48.34375c-11.851562 3.578125-23.3125 8.335938-34.214844 14.199219l-34.210937-34.199219c-3.121094-3.121094-8.1875-3.121094-11.308594 0l-67.921875 67.921875c-3.121094 3.121094-3.121094 8.1875 0 11.308594l34.199219 34.210937c-5.859375 10.902344-10.617188 22.367188-14.199219 34.214844h-48.34375c-4.417969 0-8 3.582031-8 8v96c0 4.417969 3.582031 8 8 8h48.34375c3.582031 11.847656 8.339844 23.3125 14.199219 34.214844l-34.199219 34.210937c-3.121094 3.121094-3.121094 8.1875 0 11.308594l67.921875 67.921875c3.121094 3.121094 8.1875 3.121094 11.308594 0l34.210937-34.199219c10.902344 5.863281 22.363282 10.621094 34.214844 14.199219v48.34375c0 4.417969 3.582031 8 8 8h96c4.417969 0 8-3.582031 8-8v-48.34375c11.851562-3.578125 23.3125-8.335938 34.214844-14.199219l34.210937 34.199219c3.121094 3.121094 8.1875 3.121094 11.308594 0l67.921875-67.921875c3.121094-3.121094 3.121094-8.1875 0-11.308594l-34.199219-34.210937c5.859375-10.902344 10.617188-22.367188 14.199219-34.214844h48.34375c4.417969 0 8-3.582031 8-8v-96c0-4.417969-3.582031-8-8-8zm-8 96h-46.398438c-3.632812 0-6.808593 2.441406-7.738281 5.953125-3.875 14.574219-9.679687 28.5625-17.261719 41.597656-1.820312 3.140625-1.304687 7.109375 1.261719 9.671875l32.800781 32.800782-56.585937 56.664062-32.796875-32.800781c-2.566406-2.558594-6.53125-3.078125-9.664062-1.261719-13.035157 7.582031-27.027344 13.390625-41.601563 17.261719-3.527344.902343-6 4.074219-6.015625 7.714843v46.398438h-80v-46.398438c0-3.632812-2.449219-6.8125-5.960938-7.738281-14.574218-3.875-28.5625-9.679687-41.597656-17.261719-3.136718-1.816406-7.101562-1.300781-9.664062 1.261719l-32.800782 32.800781-56.664062-56.585937 32.800781-32.796875c2.5625-2.566406 3.082031-6.535156 1.261719-9.671875-7.582031-13.035156-13.386719-27.027344-17.261719-41.601563-.90625-3.523437-4.074219-5.992187-7.714843-6.007812h-46.398438v-80h46.398438c3.632812 0 6.808593-2.441406 7.738281-5.953125 3.875-14.574219 9.679687-28.5625 17.261719-41.597656 1.820312-3.140625 1.304687-7.109375-1.261719-9.671875l-32.800781-32.800782 56.585937-56.664062 32.796875 32.800781c2.566406 2.558594 6.53125 3.078125 9.664062 1.261719 13.035157-7.582031 27.027344-13.390625 41.601563-17.261719 3.527344-.902343 6-4.074219 6.015625-7.714843v-46.398438h80v46.398438c0 3.632812 2.449219 6.8125 5.960938 7.738281 14.574218 3.875 28.5625 9.679687 41.597656 17.261719 3.136718 1.816406 7.101562 1.300781 9.664062-1.261719l32.800782-32.800781 56.609374 56.609374-32.800781 32.796876c-2.566406 2.566406-3.085937 6.535156-1.265625 9.671874 7.582032 13.039063 13.390625 27.027344 17.265625 41.601563.921875 3.535156 4.117188 5.996094 7.769531 5.984375h46.398438zm0 0"/><path d="m240 112c-70.691406 0-128 57.308594-128 128s57.308594 128 128 128 128-57.308594 128-128c-.082031-70.65625-57.34375-127.917969-128-128zm0 240c-61.855469 0-112-50.144531-112-112s50.144531-112 112-112 112 50.144531 112 112c-.066406 61.828125-50.171875 111.933594-112 112zm0 0"/><path d="m240 152c-48.601562 0-88 39.398438-88 88s39.398438 88 88 88 88-39.398438 88-88c-.058594-48.578125-39.421875-87.941406-88-88zm0 160c-39.765625 0-72-32.234375-72-72s32.234375-72 72-72 72 32.234375 72 72c-.042969 39.746094-32.253906 71.957031-72 72zm0 0"/></g></svg>