<svg height="512pt" viewBox="0 -33 512 512" width="512pt" xmlns="http://www.w3.org/2000/svg"><path d="m256 0-20.015625 147.585938 276.015625-20.015626v-127.570312zm0 0" fill="#b4d2d7"/><path d="m256 0h-256v127.570312l256 20.015626zm0 0" fill="#e1ebf0"/><path d="m47.839844 48.785156h31.890625v30h-31.890625zm0 0" fill="#ff3939"/><path d="m111.625 48.785156h31.894531v30h-31.894531zm0 0" fill="#ff9f22"/><path d="m175.410156 48.785156h31.894532v30h-31.894532zm0 0" fill="#15ccc2"/><path d="m256 446.496094h256v-318.925782h-256l-20.015625 159.464844zm0 0" fill="#03232e"/><path d="m0 127.570312h256v318.925782h-256zm0 0" fill="#07485e"/><g fill="#efe2dd"><path d="m357.851562 240.140625h106.308594v30h-106.308594zm0 0"/><path d="m357.851562 303.925781h106.308594v30h-106.308594zm0 0"/><path d="m357.851562 367.710938h106.308594v30h-106.308594zm0 0"/></g><path d="m464.160156 176.355469h-208.160156l-10.007812 15 10.007812 15h208.160156zm0 0" fill="#15ccc2"/><path d="m327.828125 397.710938v-157.570313h-71.828125l-20.015625 78.785156 20.015625 78.785157zm0 0" fill="#7ed8f6"/><path d="m47.839844 176.355469h208.160156v30h-208.160156zm0 0" fill="#6fe8d5"/><path d="m47.839844 240.140625h208.160156v157.574219h-208.160156zm0 0" fill="#beebfa"/></svg>